<svg xmlns="http://www.w3.org/2000/svg" viewBox="0.9100000000000001 1.0399999999999994 17.1073 13.248000000000003">
  <path d="m10 5c0 .624-.09 1.29-.27 1.998-.18.696-.432 1.392-.756 2.088-.324.684-.726 1.344-1.206 1.98-.468.624-1.002 1.176-1.602 1.656-.6.468-1.26.846-1.98 1.134-.708.288-1.464.432-2.268.432-.168 0-.336-.012-.504-.036-.168-.012-.336-.03-.504-.054.324-1.656.642-3.27.954-4.842.12-.66.246-1.344.378-2.052.132-.72.258-1.428.378-2.124.12-.696.234-1.362.342-1.998.12-.636.216-1.212.288-1.728.516-.096 1.038-.186 1.566-.27.528-.084 1.068-.126 1.62-.126.648 0 1.194.102 1.638.306.456.204.822.486 1.098.846.288.36.498.78.63 1.26.132.48.198.99.198 1.53zm-4.248-1.404c-.132.708-.27 1.386-.414 2.034-.144.648-.288 1.302-.432 1.962-.144.66-.288 1.35-.432 2.07-.144.72-.282 1.506-.414 2.358.288-.192.564-.45.828-.774.276-.336.534-.72.774-1.152.24-.432.456-.888.648-1.368.204-.48.378-.948.522-1.404.144-.456.252-.882.324-1.278.084-.396.126-.738.126-1.026 0-.444-.126-.792-.378-1.044-.24-.252-.624-.378-1.152-.378zm3.1033 10.62c.324-1.596.636-3.156.936-4.68.108-.648.228-1.32.36-2.016.132-.708.252-1.404.36-2.088.12-.696.228-1.362.324-1.998.108-.648.192-1.236.252-1.764.684-.216 1.422-.372 2.214-.468.792-.108 1.578-.162 2.358-.162.468 0 .852.054 1.152.162.312.108.552.264.72.468.18.192.306.42.378.684.072.264.108.558.108.882 0 .48-.084.954-.252 1.422-.168.456-.396.894-.684 1.314-.276.408-.6.786-.972 1.134-.36.336-.75.612-1.17.828.216.48.444 1.008.684 1.584.252.564.486 1.104.702 1.62.24.6.486 1.2.738 1.8l-2.79.972c-.24-.768-.456-1.488-.648-2.16-.084-.276-.168-.558-.252-.846-.084-.3-.162-.582-.234-.846-.072-.264-.132-.498-.18-.702-.048-.216-.078-.39-.09-.522l-.234.072c-.072.384-.162.834-.27 1.35-.096.516-.186 1.014-.27 1.494-.108.564-.216 1.134-.324 1.71l-2.916.756zm4.23-7.812c.228-.024.504-.12.828-.288.336-.168.654-.366.954-.594.3-.24.558-.486.774-.738.216-.252.324-.474.324-.666 0-.132-.042-.234-.126-.306-.084-.084-.204-.144-.36-.18-.144-.048-.306-.078-.486-.09-.18-.012-.366-.018-.558-.018-.132 0-.27.006-.414.018-.132 0-.252 0-.36 0l-.576 2.862z" fill="#000000"/>
</svg>
